<?xml version="1.0" encoding="UTF-8" standalone="no"?>
<svg
   viewBox="0 0 512 512"
   width="512"
   height="512"
   role="img"
   aria-label="TeleCon4ESP32 icon (light)"
   version="1.1"
   id="svg51"
   sodipodi:docname="ic_telecon4esp32_icon_light.svg"
   xmlns:inkscape="http://www.inkscape.org/namespaces/inkscape"
   xmlns:sodipodi="http://sodipodi.sourceforge.net/DTD/sodipodi-0.dtd"
   xmlns="http://www.w3.org/2000/svg"
   xmlns:svg="http://www.w3.org/2000/svg">
  <sodipodi:namedview
     id="namedview53"
     pagecolor="#ffffff"
     bordercolor="#000000"
     borderopacity="0.25"
     inkscape:showpageshadow="2"
     inkscape:pageopacity="0.0"
     inkscape:pagecheckerboard="0"
     inkscape:deskcolor="#d1d1d1" />
  <defs
     id="defs21">
    <linearGradient
       id="bg-light"
       x1="256"
       y1="48"
       x2="256"
       y2="464"
       gradientUnits="userSpaceOnUse">
      <stop
         offset="0%"
         stop-color="#FFFFFF"
         id="stop2" />
      <stop
         offset="100%"
         stop-color="#F0F4F8"
         id="stop4" />
    </linearGradient>
    <linearGradient
       id="four-grad"
       x1="352"
       y1="278"
       x2="352"
       y2="388"
       gradientUnits="userSpaceOnUse">
      <stop
         offset="0%"
         stop-color="#1D6FE8"
         id="stop7" />
      <stop
         offset="100%"
         stop-color="#00C2D4"
         id="stop9" />
    </linearGradient>
    <filter
       id="four-glow"
       x="-0.016749024"
       y="-0.055151984"
       width="1.0396045"
       height="1.110304">
      <feGaussianBlur
         stdDeviation="2"
         result="blur"
         id="feGaussianBlur12" />
      <feMerge
         id="feMerge18">
        <feMergeNode
           in="blur"
           id="feMergeNode14" />
        <feMergeNode
           in="SourceGraphic"
           id="feMergeNode16" />
      </feMerge>
    </filter>
  </defs>
  <path
     id="rect23"
     style="fill:url(#bg-light)"
     d="m 118.15,0 h 275.7 C 459.3051,0 512,52.694901 512,118.15 v 275.7 C 512,459.3051 459.3051,512 393.85,512 H 118.15 C 52.694901,512 0,459.3051 0,393.85 V 118.15 C 0,52.694901 52.694901,0 118.15,0 Z" />
  <g
     transform="translate(0, -20)"
     id="g41">
    <path
       id="circle25"
       style="opacity:0.12;fill:#2dd4ee"
       d="M 258.93,232.8 A 75.379997,75.379997 0 0 1 183.55,308.18 75.379997,75.379997 0 0 1 108.17001,232.8 75.379997,75.379997 0 0 1 183.55,157.42001 75.379997,75.379997 0 0 1 258.93,232.8 Z" />
    <path
       d="M 137.86 173.06 C 169.16 150 200.47 150 231.77 173.06 C 263.07 196.11 294.37 196.11 325.67 173.06 C 356.97 150 388.27 150 419.58 173.06"
       fill="none"
       stroke="#1D6FE8"
       stroke-width="33.12"
       stroke-linecap="round"
       stroke-linejoin="round"
       id="path27" />
    <path
       d="M 341.62 231 H 303.81 C 267.91 231 239.19 259.72 239.19 295.62 V 335.52"
       fill="none"
       stroke="#0891B2"
       stroke-width="32.31"
       stroke-linecap="round"
       stroke-linejoin="round"
       id="path29" />
    <path
       d="M 99.53 340.49 H 119.32 C 155.21 340.49 184.36 311.77 183.93 275.87 L 183.39 231"
       fill="none"
       stroke="#00C2D4"
       stroke-width="32.31"
       stroke-linecap="round"
       stroke-linejoin="round"
       id="path31" />
    <path
       id="circle33"
       style="fill:#00c2d4"
       d="m 140.48,340.48999 a 32.310001,32.310001 0 0 1 -32.31,32.31 32.310001,32.310001 0 0 1 -32.310003,-32.31 32.310001,32.310001 0 0 1 32.310003,-32.31 32.310001,32.310001 0 0 1 32.31,32.31 z" />
    <path
       id="circle35"
       style="fill:#00c2d4"
       d="m 223.04,232.8 a 39.490002,39.490002 0 0 1 -39.49,39.49 39.490002,39.490002 0 0 1 -39.49,-39.49 39.490002,39.490002 0 0 1 39.49,-39.49 39.490002,39.490002 0 0 1 39.49,39.49 z" />
    <path
       id="circle37"
       style="fill:#0891b2"
       d="m 273.98999,339.79001 a 33.009998,33.009998 0 0 1 -33.00999,33.01 33.009998,33.009998 0 0 1 -33.01,-33.01 33.009998,33.009998 0 0 1 33.01,-33.01 33.009998,33.009998 0 0 1 33.00999,33.01 z" />
    <path
       id="circle39"
       style="fill:#0891b2"
       d="m 413.29,232.8 a 38.700001,38.700001 0 0 1 -38.7,38.7 38.700001,38.700001 0 0 1 -38.7,-38.7 38.700001,38.700001 0 0 1 38.7,-38.7 38.700001,38.700001 0 0 1 38.7,38.7 z" />
  </g>
  <g
     transform="translate(278, 264)"
     filter="url(#four-glow)"
     id="g49">
    <path
       d="M 278 56 L 308 34"
       fill="none"
       stroke="#00C2D4"
       stroke-width="3.5"
       stroke-linecap="round"
       opacity="0.45"
       id="path43" />
    <g
       transform="skewX(-10)"
       id="g47">
      <g
         aria-label="4"
         id="text45"
         style="font-style:italic;font-weight:900;font-size:122px;font-family:'Segoe UI', Roboto, Helvetica, Arial, sans-serif;dominant-baseline:middle;text-anchor:middle;fill:url(#four-grad)">
        <path
           d="M 37.980957,59.489258 81.050293,3.6123047 V 3.1953125 L 101.3042,3.5527344 92.130371,56.332031 h 8.458989 L 97.908691,71.820312 H 89.449707 L 86.23291,90.227539 H 66.634277 l 3.216797,-18.407227 h -32.52539 z m 19.777344,-3.276367 14.773437,0.11914 5.242188,-27.044922 z"
           id="path61" />
      </g>
    </g>
  </g>
</svg>
